<svg width="72" height="50" viewBox="0 0 72 72" fill="none" xmlns="http://www.w3.org/2000/svg">
<path fill-rule="evenodd" clip-rule="evenodd" d="M7.07873 0.407614C7.31248 0.147089 7.63421 0 7.97033 0H10.6408C10.9769 0 11.2986 0.147089 11.5324 0.407614L13.299 2.37665C13.5229 2.62625 13.6481 2.95999 13.6481 3.30733V20.7691C13.6481 21.124 13.5174 21.4644 13.2847 21.7154L11.5301 23.608C11.2974 23.859 10.9818 24 10.6527 24H7.95838C7.62931 24 7.31372 23.859 7.08104 23.608L5.32637 21.7154C5.09368 21.4644 4.96296 21.124 4.96296 20.7691V3.30733C4.96296 2.95999 5.08816 2.62625 5.3121 2.37665L7.07873 0.407614ZM1.24074 8.02974C0.555499 8.02974 0 8.62891 0 9.36803V14.7212C0 15.4603 0.555499 16.0595 1.24074 16.0595C1.92598 16.0595 2.48148 15.4603 2.48148 14.7212V9.36803C2.48148 8.62891 1.92598 8.02974 1.24074 8.02974ZM16.1296 9.36803C16.1296 8.62891 16.6851 8.02974 17.3704 8.02974H49.6296C50.3149 8.02974 50.8704 8.62891 50.8704 9.36803V14.7212C50.8704 15.4603 50.3149 16.0595 49.6296 16.0595H17.3704C16.6851 16.0595 16.1296 15.4603 16.1296 14.7212V9.36803ZM64.5185 9.36803C64.5185 8.62891 65.074 8.02974 65.7593 8.02974C66.4445 8.02974 67 8.62891 67 9.36803V14.7212C67 15.4603 66.4445 16.0595 65.7593 16.0595C65.074 16.0595 64.5185 15.4603 64.5185 14.7212V9.36803ZM56.3592 0C56.0231 0 55.7014 0.147089 55.4676 0.407614L53.701 2.37665C53.4771 2.62625 53.3519 2.95999 53.3519 3.30733V20.7691C53.3519 21.124 53.4826 21.4644 53.7153 21.7154L55.4699 23.608C55.7026 23.859 56.0182 24 56.3473 24H59.0416C59.3707 24 59.6863 23.859 59.919 23.608L61.6736 21.7154C61.9063 21.4644 62.037 21.124 62.037 20.7691V3.30733C62.037 2.95999 61.9118 2.62625 61.6879 2.37665L59.9213 0.407614C59.6875 0.147089 59.3658 0 59.0297 0H56.3592Z" fill="black"/>
</svg>
