<svg width="72" height="72" viewBox="0 0 72 72" fill="none" xmlns="http://www.w3.org/2000/svg">
<path d="M64.23 38.5802H47.61C47.2473 38.5838 46.8956 38.4559 46.62 38.2202L13.59 9.3602C13.4505 9.21961 13.2846 9.10802 13.1019 9.03186C12.9191 8.95571 12.723 8.9165 12.525 8.9165C12.327 8.9165 12.1309 8.95571 11.9481 9.03186C11.7653 9.10802 11.5994 9.21961 11.46 9.3602L9.50999 11.7602C9.3694 11.8996 9.25781 12.0655 9.18166 12.2483C9.1055 12.4311 9.0663 12.6272 9.0663 12.8252C9.0663 13.0232 9.1055 13.2193 9.18166 13.4021C9.25781 13.5849 9.3694 13.7508 9.50999 13.8902L28.53 30.3602C28.5232 30.4401 28.5232 30.5203 28.53 30.6002L29.64 44.2202L7.46999 47.2202C7.11469 47.2704 6.78916 47.4463 6.55248 47.7161C6.31579 47.9858 6.18364 48.3314 6.17999 48.6902V57.6902C6.17601 57.8872 6.21088 58.083 6.28261 58.2666C6.35434 58.4501 6.46152 58.6177 6.59803 58.7597C6.73454 58.9018 6.8977 59.0156 7.0782 59.0946C7.2587 59.1736 7.453 59.2163 7.64999 59.2202H10.65C11.0162 59.1834 11.356 59.0134 11.605 58.7423C11.8539 58.4713 11.9945 58.1182 12 57.7502V54.0002C12.0036 53.6414 12.1358 53.2958 12.3725 53.0261C12.6092 52.7563 12.9347 52.5804 13.29 52.5302L30 50.1902L30.72 58.9502C30.7502 59.3269 30.9215 59.6783 31.1996 59.9341C31.4777 60.19 31.8421 60.3314 32.22 60.3302H62.73C63.1278 60.3302 63.5093 60.1722 63.7906 59.8909C64.072 59.6096 64.23 59.228 64.23 58.8302V44.5802C64.6278 44.5802 65.0093 44.4222 65.2906 44.1409C65.572 43.8596 65.73 43.478 65.73 43.0802V40.0802C65.73 39.6824 65.572 39.3008 65.2906 39.0195C65.0093 38.7382 64.6278 38.5802 64.23 38.5802ZM34.95 36.0002L42.39 42.5102L35.55 43.4402L34.95 36.0002ZM56.73 54.3602H37.8C37.4221 54.3614 37.0577 54.22 36.7796 53.9641C36.5015 53.7083 36.3302 53.3569 36.3 52.9802L36 49.3802L58.2 46.3802V52.8302C58.2001 53.2229 58.0462 53.5999 57.7713 53.8804C57.4965 54.1609 57.1226 54.3223 56.73 54.3302V54.3602Z" fill="#0D0D0D"/>
</svg>
