<svg width="72" height="72" viewBox="0 0 72 72" fill="none" xmlns="http://www.w3.org/2000/svg">
<g clip-path="url(#clip0_11907_84522)">
<path d="M64.98 21.8101C65.5999 22.4427 65.9449 23.2945 65.94 24.1801V28.0801C65.937 28.9554 65.5926 29.795 64.98 30.4201L59.46 36.0001C59.1477 36.3084 58.7776 36.5519 58.3709 36.7167C57.9641 36.8814 57.5289 36.9642 57.09 36.9601H53.19C52.7512 36.9642 52.316 36.8814 51.9092 36.7167C51.5025 36.5519 51.1323 36.3084 50.82 36.0001L45.72 30.9001L30.93 45.6301L36 50.8201C36.6199 51.4527 36.9649 52.3045 36.96 53.1901V57.0001C36.9649 57.8858 36.6199 58.7375 36 59.3701L30.45 65.0401C29.8267 65.6554 28.9859 66.0003 28.11 66.0001H24.27C23.8312 66.0042 23.396 65.9214 22.9892 65.7567C22.5825 65.5919 22.2123 65.3484 21.9 65.0401L16.8 60.0001L12 55.1701L6.96005 50.0101C6.3402 49.3775 5.99519 48.5258 6.00005 47.6401V43.7401C6.00305 42.8649 6.34748 42.0253 6.96005 41.4001L12.66 36.0001C12.9613 35.6791 13.3233 35.421 13.7249 35.2408C14.1266 35.0606 14.56 34.9618 15 34.9501H18.75C19.6074 34.997 20.4135 35.3732 21 36.0001L26.1 41.1001L40.89 26.2501L36 21.0001C35.3802 20.3675 35.0352 19.5158 35.04 18.6301V14.7301C35.0734 13.8966 35.4156 13.1053 36 12.5101L41.49 6.96014C42.1134 6.34485 42.9541 5.99994 43.83 6.00014H47.73C48.1689 5.9961 48.6041 6.07884 49.0109 6.24359C49.4176 6.40834 49.7877 6.65186 50.1 6.96014L55.23 12.0001L59.85 16.5601L64.98 21.8101Z" fill="#0D0D0D"/>
</g>
<defs>
<clipPath id="clip0_11907_84522">
<rect width="59.94" height="60" fill="white" transform="translate(6 6)"/>
</clipPath>
</defs>
</svg>
