<svg width="72" height="72" viewBox="0 0 72 72" fill="none" xmlns="http://www.w3.org/2000/svg">
<path d="M30 3C28.0302 3 26.0796 3.38799 24.2597 4.14181C22.4399 4.89563 20.7863 6.00052 19.3934 7.3934C16.5804 10.2064 15 14.0218 15 18V37.5C15 37.8978 15.158 38.2794 15.4393 38.5607C15.7206 38.842 16.1022 39 16.5 39H19.5C19.8978 39 20.2794 38.842 20.5607 38.5607C20.842 38.2794 21 37.8978 21 37.5V30C23.6361 31.9796 26.8508 33.0357 30.1473 33.005C33.4438 32.9742 36.6383 31.8584 39.237 29.83C41.8357 27.8016 43.6938 24.9736 44.524 21.7832C45.3542 18.5928 45.1103 15.2178 43.83 12.18C47.3403 14.4212 49.895 17.8845 51 21.9C51.4583 23.7426 51.6103 25.648 51.45 27.54V27.99V29.43L51 36.87V37.44C50.9919 37.642 51.0247 37.8435 51.0965 38.0325C51.1682 38.2214 51.2774 38.394 51.4175 38.5397C51.5577 38.6854 51.7258 38.8013 51.9118 38.8804C52.0978 38.9595 52.2979 39.0002 52.5 39H55.5C55.8876 39.0003 56.2604 38.8505 56.54 38.5821C56.8196 38.3136 56.9845 37.9473 57 37.56L57.33 30.45V28.8V27.78C57.6632 25.2201 57.5515 22.6219 57 20.1C53.25 8.76 44.04 3 30 3ZM30 27C27.6131 27 25.3239 26.0518 23.636 24.364C21.9482 22.6761 21 20.3869 21 18C21 15.6131 21.9482 13.3239 23.636 11.636C25.3239 9.94821 27.6131 9 30 9H30.18C32.5669 9.02387 34.8467 9.99497 36.5176 11.6997C38.1886 13.4044 39.1139 15.7031 39.09 18.09C39.0661 20.4769 38.095 22.7567 36.3903 24.4276C34.6856 26.0986 32.3869 27.0239 30 27ZM12 48C12 47.2044 12.3161 46.4413 12.8787 45.8787C13.4413 45.3161 14.2044 45 15 45H21C21.7956 45 22.5587 45.3161 23.1213 45.8787C23.6839 46.4413 24 47.2044 24 48V66C24 66.7956 23.6839 67.5587 23.1213 68.1213C22.5587 68.6839 21.7956 69 21 69H15C14.2044 69 13.4413 68.6839 12.8787 68.1213C12.3161 67.5587 12 66.7956 12 66V48ZM48 48C48 47.2044 48.3161 46.4413 48.8787 45.8787C49.4413 45.3161 50.2044 45 51 45H57C57.7956 45 58.5587 45.3161 59.1213 45.8787C59.6839 46.4413 60 47.2044 60 48V66C60 66.7956 59.6839 67.5587 59.1213 68.1213C58.5587 68.6839 57.7956 69 57 69H51C50.2044 69 49.4413 68.6839 48.8787 68.1213C48.3161 67.5587 48 66.7956 48 66V48Z" fill="#0D0D0D"/>
</svg>
