<svg width="73" height="72" viewBox="0 0 73 72" fill="none" xmlns="http://www.w3.org/2000/svg">
<path d="M21.1776 25.7739L15.1634 31.7716C14.8906 32.0616 14.5097 32.226 14.111 32.226C13.7123 32.226 13.3313 32.0616 13.0585 31.7716L6.59332 25.474C6.30261 25.2019 6.1377 24.822 6.1377 24.4244C6.1377 24.0268 6.30261 23.6469 6.59332 23.3748L17.7495 12.2191C18.4981 11.4705 19.4317 10.9325 20.4559 10.6597L26.6203 9.01031C26.9826 8.92412 27.3536 9.11547 27.4924 9.46014C29.3419 12.5942 32.5835 14.6565 36.2129 15.008C39.8365 14.6631 43.0769 12.6127 44.9333 9.49013C45.0609 9.13356 45.4349 8.92774 45.8054 9.01031L51.8195 10.6297C52.8437 10.9025 53.7773 11.4405 54.5259 12.1891L65.6821 23.3449C65.9728 23.6169 66.1377 23.9968 66.1377 24.3945C66.1377 24.7921 65.9728 25.172 65.6821 25.4441L59.3071 31.8016C59.0343 32.0916 58.6533 32.256 58.2546 32.256C57.8559 32.256 57.475 32.0916 57.2022 31.8016L51.188 25.8039V59.9909C51.188 61.6471 49.8417 62.9897 48.181 62.9897H24.1846C22.5239 62.9897 21.1776 61.6471 21.1776 59.9909V25.7739Z" fill="#0D0D0D"/>
</svg>
