<svg width="73" height="72" viewBox="0 0 73 72" fill="none" xmlns="http://www.w3.org/2000/svg">
<path fill-rule="evenodd" clip-rule="evenodd" d="M31.1263 16H42.2739H43.7107C44.9906 16 46.0846 16.7967 46.5253 17.9219C46.5417 17.9637 46.5816 17.9919 46.6264 17.9919C46.6853 17.9919 46.733 18.0397 46.733 18.0986V27.6415C46.733 28.4772 46.0565 29.1547 45.2219 29.1547H42.6704C41.8358 29.1547 41.1593 28.4772 41.1593 27.6415V23.0946C41.1593 22.2589 40.4827 21.5814 39.6481 21.5814H33.7524C32.9178 21.5814 32.2413 22.2589 32.2413 23.0946V27.6415C32.2413 28.4772 31.5647 29.1547 30.7302 29.1547H28.1786C27.3441 29.1547 26.6675 28.4772 26.6675 27.6415V21.5815L26.6674 21.5814L26.6673 21.5813V19.0264L26.6675 18.9929V18.0985C26.6675 18.0396 26.7152 17.9919 26.774 17.9919C26.8187 17.9919 26.8585 17.9637 26.8749 17.922C27.3155 16.7968 28.4096 16 29.6895 16H31.1263ZM51.2824 32.0936C51.9466 32.0936 52.5923 32.3127 53.1196 32.717L68.9576 44.8593C69.7045 45.432 70.1426 46.3203 70.1426 47.2623V60.9736C70.1426 62.645 68.7895 64 67.1204 64H5.1648C3.49567 64 2.14258 62.645 2.14258 60.9736V47.3173C2.14258 46.3443 2.6097 45.4307 3.39798 44.8619L20.302 32.6647C20.8165 32.2934 21.4347 32.0936 22.0688 32.0936H51.2824ZM21.787 43.9584C20.9525 43.9584 20.2759 44.6359 20.2759 45.4716C20.2759 46.3073 20.9525 46.9848 21.787 46.9848H52.0092C52.8438 46.9848 53.5204 46.3073 53.5204 45.4716C53.5204 44.6359 52.8438 43.9584 52.0092 43.9584H21.787Z" fill="black"/>
</svg>
