<svg width="73" height="72" viewBox="0 0 73 72" fill="none" xmlns="http://www.w3.org/2000/svg">
<path fill-rule="evenodd" clip-rule="evenodd" d="M17.6937 12.5688L17.0623 12.2062C16.421 11.838 15.6073 11.9734 15.1214 12.5292L12.7595 15.2311C9.54776 18.9054 7.32735 23.3299 6.30519 28.0893C6.30462 28.092 6.30157 28.0933 6.29927 28.0918C6.29741 28.0906 6.29493 28.0912 6.29381 28.0931L3.35694 33.0511C2.92058 33.7877 3.17181 34.7369 3.91628 35.1644L19.492 44.1084C20.0764 44.4439 20.8117 44.3646 21.297 43.8984C21.9748 43.2474 22.9248 42.3005 23.5639 41.5202C23.9693 41.0254 24.6841 40.8993 25.2124 41.2617L36.9365 49.3053C37.6338 49.7836 37.8145 50.7308 37.342 51.43L36.4461 52.7555C35.9463 53.495 36.1806 54.5007 36.9565 54.9462L48.8815 61.7939C49.1442 61.9447 49.4456 62.0154 49.7483 61.9972L67.1311 60.9518C67.6496 60.9206 68.1177 60.6327 68.3774 60.1853L70.0516 57.3013C70.0518 57.3009 70.0516 57.3004 70.0512 57.3003C70.0504 57.3 70.0508 57.2988 70.0516 57.2989C70.052 57.299 70.0524 57.2987 70.0524 57.2984C70.3903 55.3774 69.7668 53.4131 68.3812 52.0332L59.7725 43.4598C55.9203 39.6234 52.5562 35.3312 49.7556 30.6795L43.8737 20.9097C43.4205 20.1569 42.4341 19.939 41.707 20.4077C39.1359 22.8684 35.6412 24.3813 31.7913 24.3813C24.719 24.3813 18.8457 19.276 17.6937 12.5688Z" fill="black"/>
</svg>
