<svg width="72" height="72" viewBox="0 0 72 72" fill="none" xmlns="http://www.w3.org/2000/svg">
<path d="M59.76 56.4205H43.62L53.19 27.8005H61.98C62.1756 27.8006 62.3692 27.7616 62.5496 27.6858C62.7299 27.6101 62.8933 27.4991 63.0302 27.3594C63.1671 27.2197 63.2747 27.0541 63.3468 26.8723C63.4189 26.6905 63.454 26.4961 63.45 26.3005V23.3005C63.45 22.9107 63.2951 22.5368 63.0194 22.2611C62.7438 21.9854 62.3699 21.8305 61.98 21.8305H60L64.2 12.5605C64.2853 12.3735 64.3327 12.1714 64.3397 11.966C64.3466 11.7605 64.3128 11.5557 64.2403 11.3634C64.1679 11.171 64.0581 10.9949 63.9173 10.8451C63.7765 10.6953 63.6075 10.5748 63.42 10.4905L60.75 9.14054C60.563 9.05527 60.3609 9.00781 60.1554 9.00088C59.95 8.99396 59.7452 9.02771 59.5528 9.1002C59.3605 9.17268 59.1843 9.28247 59.0345 9.42325C58.8848 9.56403 58.7643 9.73303 58.68 9.92054L53.34 21.8005H31.56C28.11 21.8005 25.83 25.1005 25.08 28.3705C24.5804 29.7952 24.5914 31.3493 25.1114 32.7667C25.6313 34.1841 26.6277 35.3768 27.93 36.1405L42 42.5605L37.38 56.4205H10.5C9.30653 56.4205 8.16193 56.8946 7.31802 57.7385C6.47411 58.5825 6 59.7271 6 60.9205C6 62.114 6.47411 63.2586 7.31802 64.1025C8.16193 64.9464 9.30653 65.4205 10.5 65.4205H59.76C60.9535 65.4205 62.0981 64.9464 62.942 64.1025C63.7859 63.2586 64.26 62.114 64.26 60.9205C64.26 59.7271 63.7859 58.5825 62.942 57.7385C62.0981 56.8946 60.9535 56.4205 59.76 56.4205ZM30.84 30.8905C30.8172 29.8067 31.1667 28.7479 31.83 27.8905H46.83L43.83 36.8905L30.84 30.8905Z" fill="black"/>
</svg>
