<svg width="72" height="72" viewBox="0 0 72 72" fill="none" xmlns="http://www.w3.org/2000/svg">
<g clip-path="url(#clip0_10801_86724)">
<path d="M46.47 18.0003H43.47C43.0722 18.0003 42.6906 18.1583 42.4093 18.4396C42.128 18.7209 41.97 19.1025 41.97 19.5003V23.0403C41.9012 23.5719 42.0037 24.1117 42.2627 24.581C42.5217 25.0504 42.9236 25.425 43.41 25.6503L46.71 27.5703L51 30.0003C50.998 31.3164 51.2848 32.617 51.84 33.8103L37.65 42.0003H33L29.4 39.3903C29.1771 39.2232 28.9122 39.1214 28.6347 39.0964C28.3573 39.0713 28.0783 39.1241 27.8292 39.2487C27.58 39.3732 27.3705 39.5647 27.224 39.8017C27.0776 40.0387 27 40.3117 27 40.5903V42.0003H7.5C7.10218 42.0003 6.72064 42.1583 6.43934 42.4396C6.15804 42.7209 6 43.1025 6 43.5003V46.5003C6 46.8981 6.15804 47.2797 6.43934 47.561C6.72064 47.8423 7.10218 48.0003 7.5 48.0003H10.83L7.68 51.3003C7.40516 51.5807 7.25121 51.9577 7.25121 52.3503C7.25121 52.7429 7.40516 53.1199 7.68 53.4003L9.81 55.5303C9.94944 55.6709 10.1153 55.7825 10.2981 55.8586C10.4809 55.9348 10.677 55.974 10.875 55.974C11.073 55.974 11.2691 55.9348 11.4519 55.8586C11.6347 55.7825 11.8006 55.6709 11.94 55.5303L19.41 48.0003H33V49.5303C33 49.8089 33.0776 50.0819 33.224 50.3189C33.3705 50.5559 33.58 50.7474 33.8292 50.8719C34.0783 50.9965 34.3573 51.0493 34.6347 51.0242C34.9122 50.9992 35.1771 50.8974 35.4 50.7303L39 48.0003H51.27L59.13 55.8603C59.2694 56.0009 59.4353 56.1125 59.6181 56.1886C59.8009 56.2648 59.997 56.304 60.195 56.304C60.393 56.304 60.5891 56.2648 60.7719 56.1886C60.9547 56.1125 61.1206 56.0009 61.26 55.8603L63.39 53.7303C63.5306 53.5909 63.6422 53.425 63.7183 53.2422C63.7945 53.0594 63.8337 52.8633 63.8337 52.6653C63.8337 52.4673 63.7945 52.2712 63.7183 52.0884C63.6422 51.9056 63.5306 51.7397 63.39 51.6003L52.26 40.5603L56.28 38.2503C57.8063 38.9423 59.4955 39.1943 61.1573 38.9781C62.8192 38.7619 64.3876 38.086 65.6861 37.0265C66.9845 35.967 67.9613 34.566 68.5065 32.9813C69.0517 31.3966 69.1437 29.6912 68.772 28.0571C68.4002 26.423 67.5797 24.9251 66.4027 23.7322C65.2256 22.5393 63.7389 21.6987 62.11 21.3051C60.481 20.9115 58.7745 20.9805 57.1826 21.5044C55.5908 22.0283 54.1768 22.9862 53.1 24.2703L48 21.2703V19.5003C48 19.3008 47.9603 19.1032 47.883 18.9193C47.8058 18.7353 47.6926 18.5686 47.5501 18.4289C47.4076 18.2892 47.2387 18.1793 47.0532 18.1058C46.8678 18.0322 46.6695 17.9963 46.47 18.0003Z" fill="#0D0D0D"/>
</g>
<defs>
<clipPath id="clip0_10801_86724">
<rect width="63" height="38.37" fill="white" transform="translate(6 18)"/>
</clipPath>
</defs>
</svg>
