<svg width="72" height="72" viewBox="0 0 72 72" fill="none" xmlns="http://www.w3.org/2000/svg">
<path fill-rule="evenodd" clip-rule="evenodd" d="M60.3025 3.27076C60.062 3.13498 59.757 3.21984 59.6212 3.46029L51.1867 18.3972L50.9391 18.8865C50.3415 20.2152 50.2454 21.723 50.6811 23.1264L50.9006 23.8335L42.2371 21.9907L52.0241 7.47615C52.1785 7.24719 52.118 6.93643 51.8891 6.78205L47.7435 3.98671C47.5145 3.83233 47.2038 3.89279 47.0494 4.12174L37.2624 18.6363L37.0037 19.0555C35.4874 21.752 36.2726 25.2055 38.8827 26.9655C39.5209 27.3958 40.2359 27.6993 40.9888 27.8594L52.9396 30.4015L57.3691 44.6693L52.1429 59.2232L42.3999 60.9412L44.1821 56.5302C44.2855 56.2742 44.1618 55.9828 43.9058 55.8793L27.6833 49.325C25.8397 45.3268 21.9304 42.5683 17.4058 42.5683C11.1065 42.5683 6 47.9148 6 54.5101C6 56.0428 6.27579 57.508 6.77824 58.8544L8.21941 63H6.5C6.22386 63 6 63.2239 6 63.5V68.5C6 68.7762 6.22386 69 6.5 69H31.1687C31.189 69.0013 31.2095 69.0013 31.2302 69H58.9873L59.6645 68.9745C60.3397 68.9236 61.0077 68.7965 61.6558 68.5953C66.4028 67.1216 69.0564 62.0786 67.5827 57.3316L63.6946 44.8077L67.4617 34.3171L67.5857 33.9311L67.6834 33.5377C68.3728 30.2965 66.3042 27.1101 63.063 26.4206L57.6273 25.2644L56.4113 21.3474L64.8458 6.4105C64.9816 6.17005 64.8967 5.86505 64.6563 5.72927L60.3025 3.27076ZM59.6663 31.8323L60.7386 35.2861L61.8147 32.2893L59.6663 31.8323ZM60.3251 54.1909L57.1618 63H58.9873C59.2889 63 59.5888 62.9545 59.8768 62.8651C61.3461 62.409 62.2138 60.927 61.9369 59.4507L61.8524 59.1105L60.3251 54.1909ZM32.3927 62.7057L30.3678 56.8808L41.0198 61.1845L32.3927 62.7057Z" fill="black"/>
</svg>
